<svg width="116" height="207" viewBox="0 0 116 207" fill="none" xmlns="http://www.w3.org/2000/svg">
<g clip-path="url(#clip0_4902_28461)">
<path d="M98.48 62.11C101.76 63.88 105.1 66.82 107.59 69.66C115.64 78.83 117 90.42 114.94 102.2C112.01 118.91 99.37 128.42 83.04 130.46L2.17999 130.32C1.31999 129.87 0.749988 129.16 0.409988 128.25C0.0199881 87.01 0.359988 45.7 0.229988 4.44001C0.469988 1.80001 2.31999 0.330007 4.89999 0.250007C26.18 0.870007 47.9 -0.539993 69.13 0.250007C82.14 0.730007 90.92 4.06001 99.55 13.92C110.12 25.99 111.11 45.37 101.44 58.25C101.04 58.78 98.2 61.76 98.47 62.11H98.48ZM68.72 15.19C51.48 15.34 34.1 15.24 16.88 15.59C14.96 16.38 14.2 18.29 14.13 20.27V111.87C14.22 113.93 15.39 115.77 17.61 115.83L82.52 115.79C104.48 112.07 108.64 85.6 89.69 74.15C88.29 73.3 85.59 71.66 84.1 72.53C72.45 78.69 61.19 86.85 49.53 92.84C44.64 95.35 39.72 93.68 38.58 88.13V38.73C39.35 34.04 44.39 31.12 48.81 33.06C59.62 39.12 69.9 46.13 80.68 52.23C82.45 53.23 85.17 55.59 86.87 53.96C98.5 42.84 93.74 21 78.3 16.25C74.94 15.21 72.2 15.15 68.72 15.18V15.19ZM53.49 54.5C53.22 54.77 53.22 55.38 53.18 55.75C52.84 59.76 52.81 67.6 53.18 71.59C53.42 74.22 54.64 73.26 56.23 72.46C60.63 70.24 64.87 67.13 69.33 64.95C69.95 64.59 70.44 64 70.18 63.23C69.9 62.4 56.72 55.66 55.05 54.38C54.64 54.12 53.84 54.16 53.5 54.5H53.49Z" fill="white"/>
<path d="M37.38 176.47H52C48.58 169.41 49.71 161.76 55.83 156.69C61.35 152.11 71.33 151.04 77.73 154.21C81.98 156.31 83.07 160.43 79.65 163.98C77.48 166.24 77.39 164.79 75.41 163.72C69.26 160.42 61.02 162.78 61.83 170.83C62.08 173.29 64.64 176.47 67.22 176.47H113.58V186.78H0V176.47H25.16C25.43 168 21.07 162.8 12.34 163.29C11.02 163.36 7.01 164.48 6.23 164.12C4.51 163.33 3.3 159.15 3.75 157.34C5.38 150.81 19.07 152.16 23.77 154C30.59 156.65 37.36 165.01 37.36 172.52V176.48L37.38 176.47Z" fill="white"/>
<path d="M103.51 167.12C103.42 167 104.33 164.43 104.46 164.34C104.72 164.16 109.16 165.79 109.02 162.57C104.73 162.97 100.78 161.42 101.35 156.45C101.98 151.04 111.84 150.59 112.79 156.27C113.07 157.93 113.02 162.92 112.41 164.41C110.95 168.01 106.74 168.41 103.5 167.12H103.51ZM109.02 159.45C108.95 158.65 109.13 157.73 109 156.95C108.66 154.74 105.18 154.77 104.94 157.2C104.7 159.63 107.31 159.54 109.01 159.46L109.02 159.45Z" fill="white"/>
<path d="M108.46 195.02C112.71 194.96 115.61 199.76 113.29 203.4C110.97 207.04 105.16 206.86 103.3 202.69C101.65 199.01 104.55 195.08 108.46 195.02Z" fill="white"/>
<path d="M53.4901 54.5C53.8301 54.16 54.6301 54.13 55.0401 54.38C56.7101 55.66 69.8901 62.4 70.1701 63.23C70.4301 64 69.9501 64.59 69.3201 64.95C64.8601 67.14 60.6201 70.25 56.2201 72.46C54.6301 73.26 53.4101 74.22 53.1701 71.59C52.8001 67.6 52.8301 59.76 53.1701 55.75C53.2001 55.38 53.2101 54.77 53.4801 54.5H53.4901Z" fill="#61EDFC"/>
</g>
<defs>
<clipPath id="clip0_4902_28461">
<rect width="115.79" height="206.05" fill="white"/>
</clipPath>
</defs>
</svg>
