<svg width="53" height="94" viewBox="0 0 53 94" fill="none" xmlns="http://www.w3.org/2000/svg">
<g clip-path="url(#clip0_4902_28439)">
<path d="M45.0767 28.3346C46.5781 29.142 48.1069 30.4833 49.2466 31.7789C52.9313 35.9622 53.5538 41.2496 52.6109 46.6236C51.2697 54.2467 45.4841 58.5852 38.0094 59.5158L0.997794 59.452C0.60415 59.2467 0.343247 58.9228 0.18762 58.5076C0.00910723 39.6939 0.164734 20.8483 0.10523 2.02551C0.215084 0.821146 1.06188 0.150532 2.24281 0.114036C11.9832 0.39688 21.925 -0.246362 31.6425 0.114036C37.5975 0.333012 41.6163 1.85216 45.5665 6.35029C50.4046 11.8566 50.8578 20.6978 46.4316 26.5736C46.2485 26.8154 44.9486 28.1749 45.0721 28.3346H45.0767ZM31.4548 6.92966C23.5636 6.99809 15.6084 6.95247 7.72635 7.11214C6.84752 7.47254 6.49965 8.34388 6.46761 9.24716V51.0351C6.5088 51.9748 7.04434 52.8143 8.06049 52.8416L37.7714 52.8234C47.8231 51.1263 49.7272 39.0507 41.0533 33.8272C40.4125 33.4394 39.1766 32.6913 38.4946 33.0882C33.1621 35.8984 28.0082 39.6209 22.6711 42.3536C20.4328 43.4986 18.1808 42.7368 17.659 40.2049V17.6686C18.0114 15.529 20.3184 14.1969 22.3415 15.082C27.2895 17.8465 31.9949 21.0445 36.9292 23.8273C37.7394 24.2835 38.9844 25.3601 39.7625 24.6165C45.0859 19.5436 42.9071 9.58019 35.8398 7.41324C34.3019 6.93879 33.0477 6.91142 31.4548 6.9251V6.92966ZM24.4837 24.8629C24.3601 24.9861 24.3601 25.2643 24.3418 25.4331C24.1862 27.2625 24.1724 30.8391 24.3418 32.6593C24.4516 33.8591 25.0101 33.4212 25.7378 33.0562C27.7518 32.0435 29.6926 30.6247 31.734 29.6302C32.0178 29.4659 32.2421 29.1968 32.1231 28.8455C31.9949 28.4669 25.9621 25.3921 25.1977 24.8081C25.0101 24.6895 24.6439 24.7078 24.4882 24.8629H24.4837Z" fill="#133171"/>
<path d="M17.1098 80.5056H23.8017C22.2363 77.2848 22.7535 73.7949 25.5548 71.482C28.0814 69.3926 32.6495 68.9044 35.579 70.3506C37.5243 71.3086 38.0232 73.1882 36.4578 74.8077C35.4645 75.8387 35.4234 75.1772 34.5171 74.6891C31.702 73.1836 27.9304 74.2602 28.3011 77.9326C28.4156 79.0549 29.5874 80.5056 30.7683 80.5056H51.9884V85.209H0V80.5056H11.5164C11.64 76.6416 9.64427 74.2693 5.64833 74.4929C5.04413 74.5248 3.20865 75.0358 2.85163 74.8715C2.06434 74.5111 1.51049 72.6042 1.71647 71.7785C2.46256 68.7995 8.72882 69.4154 10.8801 70.2548C14.0018 71.4637 17.1006 75.2775 17.1006 78.7036V80.5102L17.1098 80.5056Z" fill="#133171"/>
<path d="M47.3791 76.2401C47.3379 76.1854 47.7544 75.013 47.8139 74.9719C47.9329 74.8898 49.9652 75.6334 49.9012 74.1644C47.9375 74.3469 46.1295 73.6398 46.3904 71.3725C46.6788 68.9044 51.192 68.6992 51.6268 71.2904C51.755 72.0477 51.7321 74.3241 51.4529 75.0038C50.7846 76.6462 48.8576 76.8286 47.3745 76.2401H47.3791ZM49.9012 72.7411C49.8691 72.3761 49.9515 71.9564 49.892 71.6006C49.7364 70.5924 48.1435 70.6061 48.0336 71.7146C47.9238 72.8232 49.1185 72.7821 49.8966 72.7457L49.9012 72.7411Z" fill="#133171"/>
<path d="M49.6448 88.9681C51.5901 88.9407 52.9175 91.1305 51.8556 92.7911C50.7937 94.4516 48.1343 94.3695 47.2829 92.4672C46.5277 90.7884 47.8551 88.9955 49.6448 88.9681Z" fill="#133171"/>
<path d="M24.4837 24.8629C24.6394 24.7078 25.0055 24.6941 25.1932 24.8082C25.9576 25.3921 31.9904 28.4669 32.1186 28.8455C32.2376 29.1968 32.0179 29.466 31.7295 29.6302C29.6881 30.6293 27.7473 32.0481 25.7333 33.0563C25.0055 33.4212 24.4471 33.8592 24.3373 32.6594C24.1679 30.8391 24.1816 27.2625 24.3373 25.4332C24.351 25.2644 24.3556 24.9861 24.4792 24.8629H24.4837Z" fill="#61EDFC"/>
</g>
<defs>
<clipPath id="clip0_4902_28439">
<rect width="53" height="94" fill="white"/>
</clipPath>
</defs>
</svg>
